. 
 
http://www.torrenting.com          :     Once & For all ;)


               www . Torrenting . Com 

(((((((((((((= Enjoy No RAR releases =))))))))))))))))))))


...................................NFO:....................................

.General

Complete name                            : The.Adventures.of.Tintin.2011.DVDrip-4EVER.mkv
Format                                   : Matroska
Format version                           : Version 2
File size                                : 1.40 GiB
Duration                                 : 1h 42mn
Overall bit rate                         : 1 952 Kbps
Writing application                      : Lavf51.12.1
Writing library                          : Lavf51.12.1

Video

ID                                       : 1
Format                                   : AVC
Format/Info                              : Advanced Video Codec
Format profile                           : Baseline@L1.3
Codec ID                                 : V_MPEG4/ISO/AVC
Duration                                 : 1h 42mn
Bit rate                                 : 1 465 Kbps
Width                                    : 720 pixels
Height                                   : 304 pixels
Display aspect ratio                     : 16:9
Frame rate                               : 25.000 fps
Color space                              : YUV
Chroma subsampling                       : 4:2:0
Bit depth                                : 8 bits
Scan type                                : Progressive
Bits/(Pixel*Frame)                       : 0.268
Stream size                              : 1.05 GiB (75%)
Default                                  : Yes
Forced                                   : No

Audio

ID                                       : 2
Format                                   : AC-3
Format/Info                              : Audio Coding 3
Mode extension                           : CM (complete main)
Codec ID                                 : A_AC3
Duration                                 : 1h 42mn
Bit rate mode                            : Constant
Bit rate                                 : 448 Kbps
Channel(s)                               : 6 channels
Channel positions                        : Front: L C R, Side: L R, LFE
Sampling rate                            : 48.0 KHz
Bit depth                                : 16 bits
Compression mode                         : Lossy
Stream size                              : 329 MiB (23%)
Default                                  : Yes
Forced                                   : No